<svg height="512pt" viewBox="0 -25 512.001 512" width="512pt" xmlns="http://www.w3.org/2000/svg"><path d="m469.398438 371.332031h-426.796876c-19.386718 0-35.101562-15.714843-35.101562-35.097656v-293.632813c0-19.386718 15.714844-35.101562 35.101562-35.101562h426.796876c19.386718 0 35.101562 15.714844 35.101562 35.101562v293.632813c0 19.382813-15.714844 35.097656-35.101562 35.097656zm0 0" fill="#e9edf1"/><path d="m504.496094 42.609375v293.625c0 19.386719-15.710938 35.101563-35.09375 35.101563h-77.769532c19.386719 0 35.097657-15.714844 35.097657-35.101563v-84.421875h46.839843v-208.320312h-46.839843v-.882813c0-19.386719-15.714844-35.113281-35.097657-35.113281h77.769532c19.382812 0 35.09375 15.726562 35.09375 35.113281zm0 0" fill="#dae2e8"/><path d="m469.398438 371.332031h-426.796876c-19.386718 0-35.101562-15.714843-35.101562-35.097656v-49.554687h497v49.554687c0 19.382813-15.714844 35.097656-35.101562 35.097656zm0 0" fill="#4f7693"/><path d="m504.5 336.226562v-49.546874h-77.773438v49.546874c0 19.390626-15.714843 35.105469-35.097656 35.105469h77.773438c19.382812 0 35.097656-15.714843 35.097656-35.105469zm0 0" fill="#38627c"/><path d="m327.339844 455.113281h-142.679688l11.351563-83.78125h119.976562zm0 0" fill="#618aaa"/><path d="m302.792969 455.113281h24.542969l-11.347657-83.78125h-119.976562l-2.34375 17.3125h33.058593c38.410157 0 70.910157 28.398438 76.066407 66.46875zm0 0" fill="#38627c"/><path d="m269.164062 329.007812c0 7.269532-5.894531 13.164063-13.164062 13.164063s-13.164062-5.894531-13.164062-13.164063c0-7.273437 5.894531-13.164062 13.164062-13.164062s13.164062 5.890625 13.164062 13.164062zm0 0" fill="#83d9ff"/><path d="m43.429688 43.488281h143.378906v208.324219h-143.378906zm0 0" fill="#83d9ff"/><path d="m186.808594 43.488281h143.382812v208.324219h-143.382812zm0 0" fill="#ffb8d5"/><path d="m426.730469 43.492188h46.839843v208.316406h-46.839843zm0 0" fill="#80cfa1"/><path d="m330.1875 43.492188h96.542969v208.316406h-96.542969zm0 0" fill="#8fe5ac"/><path d="m161.085938 187.007812c0-7.101562-2.964844-11.734374-5.953126-14.488281-4.285156-3.929687-9.992187-5.921875-15.808593-5.921875h-48.289063c-5.804687 0-11.523437 1.992188-15.796875 5.921875-.03125.027344-.0625.058594-.09375.085938-3.847656 3.5625-5.898437 8.671875-5.898437 13.921875v18.613281h91.839844zm0 0" fill="#5186ff"/><path d="m126.96875 137.839844-7.363281 4.488281c-2.71875 1.660156-6.132813 1.660156-8.847657 0l-7.363281-4.488281c-2.539062-1.546875-4.085937-4.308594-4.085937-7.28125v-19.726563c0-5.421875 4.390625-9.820312 9.804687-9.820312h12.136719c5.414062 0 9.804688 4.398437 9.804688 9.820312v19.726563c0 2.972656-1.546876 5.734375-4.085938 7.28125zm0 0" fill="#fff"/><path d="m304.421875 187.007812c0-7.101562-2.964844-11.734374-5.957031-14.488281-4.285156-3.929687-9.992188-5.921875-15.808594-5.921875h-48.289062c-5.804688 0-11.519532 1.992188-15.796876 5.921875-.03125.027344-.058593.058594-.089843.085938-3.851563 3.5625-5.902344 8.671875-5.902344 13.921875v18.613281h91.84375zm0 0" fill="#ff84a7"/><path d="m270.304688 137.839844-7.363282 4.488281c-2.71875 1.660156-6.132812 1.660156-8.851562 0l-7.363282-4.488281c-2.535156-1.546875-4.085937-4.308594-4.085937-7.28125v-19.726563c0-5.421875 4.390625-9.820312 9.804687-9.820312h12.140626c5.414062 0 9.804687 4.398437 9.804687 9.820312v19.726563c0 2.972656-1.550781 5.734375-4.085937 7.28125zm0 0" fill="#fff"/><path d="m447.800781 187.007812c0-7.101562-2.964843-11.734374-5.957031-14.488281-4.28125-3.929687-9.992188-5.921875-15.804688-5.921875h-48.289062c-5.808594 0-11.523438 1.992188-15.800781 5.921875-.027344.027344-.058594.058594-.089844.085938-3.851563 3.5625-5.898437 8.671875-5.898437 13.921875v18.613281h91.839843zm0 0" fill="#2fa590"/><path d="m413.683594 137.839844-7.363282 4.488281c-2.71875 1.660156-6.132812 1.660156-8.847656 0l-7.367187-4.488281c-2.535157-1.546875-4.082031-4.308594-4.082031-7.28125v-19.726563c0-5.421875 4.386718-9.820312 9.804687-9.820312h12.136719c5.414062 0 9.804687 4.398437 9.804687 9.820312v19.726563c0 2.972656-1.546875 5.734375-4.085937 7.28125zm0 0" fill="#fff"/><path d="m469.402344 0h-426.804688c-23.488281 0-42.597656 19.113281-42.597656 42.605469v293.621093c0 23.492188 19.109375 42.605469 42.597656 42.605469h144.828125l-9.316406 68.78125h-8.039063c-4.140624 0-7.5 3.355469-7.5 7.5s3.359376 7.5 7.5 7.5h171.859376c4.140624 0 7.5-3.355469 7.5-7.5s-3.359376-7.5-7.5-7.5h-8.039063l-9.316406-68.78125h144.832031c23.488281 0 42.59375-19.113281 42.59375-42.605469v-293.621093c0-23.492188-19.109375-42.605469-42.597656-42.605469zm-426.804688 15h426.804688c15.21875 0 27.597656 12.382812 27.597656 27.605469v236.574219h-482v-236.574219c0-15.222657 12.378906-27.605469 27.597656-27.605469zm426.804688 348.832031h-221.515625c-4.144531 0-7.5 3.359375-7.5 7.5 0 4.144531 3.355469 7.5 7.5 7.5h61.546875l9.320312 68.78125h-125.507812l9.316406-68.78125h11.851562c4.140626 0 7.5-3.355469 7.5-7.5 0-4.140625-3.359374-7.5-7.5-7.5h-171.816406c-15.21875 0-27.597656-12.382812-27.597656-27.605469v-42.046874h482v42.046874c0 15.222657-12.378906 27.605469-27.597656 27.605469zm0 0"/><path d="m256 308.339844c-11.394531 0-20.664062 9.269531-20.664062 20.667968 0 11.394532 9.269531 20.664063 20.664062 20.664063s20.664062-9.269531 20.664062-20.664063c0-11.394531-9.269531-20.667968-20.664062-20.667968zm0 26.332031c-3.121094 0-5.664062-2.542969-5.664062-5.664063 0-3.125 2.542968-5.667968 5.664062-5.667968s5.664062 2.542968 5.664062 5.667968c0 3.121094-2.542968 5.664063-5.664062 5.664063zm0 0"/><path d="m43.429688 259.3125h430.140624c4.140626 0 7.5-3.359375 7.5-7.5v-208.324219c0-4.140625-3.359374-7.5-7.5-7.5h-430.140624c-4.144532 0-7.5 3.359375-7.5 7.5v208.324219c0 4.140625 3.355468 7.5 7.5 7.5zm422.640624-15h-128.378906v-193.324219h128.378906zm-415.140624-193.324219h128.378906v18.710938c0 4.144531 3.359375 7.5 7.5 7.5s7.5-3.355469 7.5-7.5v-18.710938h128.382812v193.324219h-128.382812v-143.300781c0-4.144531-3.359375-7.5-7.5-7.5s-7.5 3.355469-7.5 7.5v143.300781h-128.378906zm0 0"/><path d="m160.199219 166.996094c-5.546875-5.09375-12.960938-7.898438-20.875-7.898438h-48.289063c-7.921875 0-15.332031 2.808594-20.910156 7.933594 0 .003906-.070312.066406-.074219.070312-5.277343 4.886719-8.304687 11.964844-8.304687 19.425782v18.613281c0 4.144531 3.355468 7.5 7.5 7.5h91.839844c4.144531 0 7.5-3.355469 7.5-7.5v-18.132813c0-7.929687-2.976563-15.035156-8.386719-20.011718zm-6.613281 30.644531h-76.839844v-11.113281c0-3.292969 1.273437-6.363282 3.566406-8.484375 2.765625-2.542969 6.574219-3.945313 10.722656-3.945313h48.289063c4.148437 0 7.960937 1.402344 10.730469 3.941406 2.34375 2.160157 3.535156 5.175782 3.535156 8.96875v10.632813zm0 0"/><path d="m99.488281 144.242188 7.363281 4.492187c2.570313 1.5625 5.449219 2.347656 8.332032 2.347656 2.878906 0 5.757812-.78125 8.328125-2.347656l7.363281-4.492187c4.738281-2.890626 7.679688-8.132813 7.679688-13.683594v-19.726563c0-9.550781-7.761719-17.320312-17.304688-17.320312h-12.136719c-9.542969 0-17.304687 7.769531-17.304687 17.320312v19.726563c0 5.550781 2.941406 10.792968 7.679687 13.683594zm7.320313-33.410157c0-1.28125 1.035156-2.320312 2.304687-2.320312h12.136719c1.269531 0 2.304688 1.039062 2.304688 2.320312v19.726563c0 .355468-.1875.691406-.488282.875l-7.367187 4.492187c-.316407.195313-.71875.195313-1.039063 0l-7.363281-4.492187c-.300781-.183594-.488281-.519532-.488281-.875zm0 0"/><path d="m212.578125 212.640625h91.84375c4.140625 0 7.5-3.355469 7.5-7.5v-18.132813c0-7.929687-2.976563-15.035156-8.386719-20.015624-5.550781-5.089844-12.964844-7.894532-20.878906-7.894532h-48.289062c-7.917969 0-15.332032 2.804688-20.90625 7.933594-.003907 0-.074219.066406-.074219.066406-5.28125 4.886719-8.308594 11.96875-8.308594 19.425782v18.617187c0 4.144531 3.359375 7.5 7.5 7.5zm7.5-26.113281c0-3.292969 1.273437-6.363282 3.566406-8.484375 2.765625-2.542969 6.574219-3.945313 10.722657-3.945313h48.289062c4.148438 0 7.960938 1.402344 10.730469 3.941406 2.34375 2.160157 3.535156 5.175782 3.535156 8.96875v10.632813h-76.84375zm0 0"/><path d="m242.820312 144.242188 7.367188 4.492187c2.566406 1.5625 5.449219 2.347656 8.328125 2.347656s5.761719-.78125 8.328125-2.347656l7.367188-4.492187c4.734374-2.890626 7.679687-8.132813 7.679687-13.683594v-19.726563c0-9.550781-7.765625-17.320312-17.304687-17.320312h-12.140626c-9.539062 0-17.304687 7.769531-17.304687 17.320312v19.726563c0 5.550781 2.945313 10.792968 7.679687 13.683594zm7.320313-33.410157c0-1.28125 1.035156-2.320312 2.304687-2.320312h12.136719c1.273438 0 2.304688 1.039062 2.304688 2.320312v19.726563c0 .355468-.1875.691406-.488281.875l-7.363282 4.492187c-.320312.195313-.71875.195313-1.042968 0l-7.363282-4.492187c-.300781-.183594-.488281-.519532-.488281-.875zm0 0"/><path d="m355.960938 212.640625h14.65625c4.144531 0 7.5-3.355469 7.5-7.5 0-4.140625-3.355469-7.5-7.5-7.5h-7.15625v-11.113281c0-3.292969 1.273437-6.363282 3.566406-8.484375 2.765625-2.542969 6.574218-3.945313 10.722656-3.945313h48.289062c4.148438 0 7.960938 1.402344 10.726563 3.941406 2.347656 2.160157 3.535156 5.175782 3.535156 8.96875v10.632813h-35.703125c-4.140625 0-7.5 3.359375-7.5 7.5 0 4.144531 3.359375 7.5 7.5 7.5h43.203125c4.144531 0 7.5-3.355469 7.5-7.5v-18.132813c0-7.929687-2.976562-15.035156-8.386719-20.011718-5.546874-5.09375-12.960937-7.898438-20.875-7.898438h-48.289062c-7.921875 0-15.335938 2.808594-20.910156 7.933594 0 .003906-.070313.066406-.074219.070312-5.28125 4.886719-8.304687 11.964844-8.304687 19.425782v18.613281c0 4.144531 3.355468 7.5 7.5 7.5zm0 0"/><path d="m386.203125 144.242188 7.363281 4.492187c2.570313 1.5625 5.449219 2.347656 8.328125 2.347656 2.878907 0 5.761719-.78125 8.332031-2.347656l7.363282-4.492187c4.738281-2.890626 7.679687-8.132813 7.679687-13.683594v-19.726563c0-9.550781-7.761719-17.320312-17.304687-17.320312h-12.136719c-9.542969 0-17.304687 7.769531-17.304687 17.320312v19.726563c0 5.550781 2.941406 10.792968 7.679687 13.683594zm7.320313-33.410157c0-1.28125 1.03125-2.320312 2.304687-2.320312h12.136719c1.269531 0 2.304687 1.039062 2.304687 2.320312v19.726563c0 .355468-.1875.691406-.492187.875l-7.363282 4.492187c-.320312.195313-.71875.195313-1.039062 0l-7.363281-4.492187c-.300781-.183594-.492188-.519532-.492188-.875v-19.726563zm0 0"/></svg>