<svg height="512pt" viewBox="0 0 512 512.00047" width="512pt" xmlns="http://www.w3.org/2000/svg"><path d="m170.011719 443.714844-52.011719 52-100.464844-100.464844 51.628906-51.640625c2.765626 5.964844 5.847657 11.792969 9.226563 17.515625 7.75 13.074219 62.230469 66.675781 74.867187 73.960938 5.476563 3.140624 11.078126 6.023437 16.753907 8.628906zm0 0" fill="#4f7693"/><path d="m462.320312 255.90625c0 113.984375-92.402343 206.386719-206.386718 206.386719-113.980469 0-206.382813-92.402344-206.382813-206.386719s92.402344-206.382812 206.382813-206.382812c113.984375 0 206.386718 92.398437 206.386718 206.382812zm0 0" fill="#fecbaa"/><path d="m401.871094 109.972656c-13.226563-13.226562-27.804688-24.269531-43.285156-33.152344 51.140624 79.871094 41.820312 187.257813-28 257.078126-67.371094 67.371093-169.730469 78.414062-248.585938 33.152343 7.894531 12.332031 17.21875 24.011719 28 34.792969 80.597656 80.597656 211.273438 80.597656 291.871094 0s80.597656-211.273438 0-291.871094zm0 0" fill="#ffae85"/><path d="m22.375 354.027344 36.628906-36.625c2.761719 8.902344 16.007813 38 19.386719 43.71875l-19.5625 19.5625c-8.421875 8.421875-8.421875 22.074218 0 30.496094l43.917969 43.917968c8.421875 8.421875 22.074218 8.421875 30.496094 0l53.390624-53.390625c8.710938-8.710937 22.839844-8.710937 31.550782 0 8.714844 8.714844 8.714844 22.84375 0 31.554688l-58.285156 58.289062c-25.96875 25.964844-67.296876 27.207031-94.746094 3.707031-1.363282-1.183593-2.699219-2.414062-3.992188-3.707031l-38.78125-38.785156c-1.429687-1.425781-2.792968-2.914063-4.066406-4.4375-23.136719-27.425781-21.769531-68.464844 4.0625-94.300781zm0 0" fill="#ff84a7"/><path d="m494.511719 116.761719-51.625 51.628906c-2.773438-5.960937-5.859375-11.789063-9.230469-17.515625-7.75-13.070312-17.058594-25.472656-27.953125-36.933594-1.25-1.332031-2.53125-2.65625-3.84375-3.96875-.515625-.527344-1.042969-1.050781-1.582031-1.558594-1.847656-1.808593-3.730469-3.585937-5.628906-5.3125-11.183594-10.175781-23.222657-18.898437-35.859376-26.183593-5.488281-3.144531-11.078124-6.023438-16.761718-8.621094l52.011718-52.007813zm0 0" fill="#4f7693"/><path d="m489.664062 157.972656-36.625 36.628906c-2.761718-8.902343-6.152343-17.671874-10.15625-26.214843-2.773437-5.957031-5.851562-11.789063-9.230468-17.507813l19.5625-19.5625c8.417968-8.417968 8.417968-22.074218 0-30.496094l-43.917969-43.914062c-8.421875-8.421875-22.074219-8.421875-30.496094 0l-53.390625 53.386719c-8.714844 8.714843-22.839844 8.714843-31.554687 0-8.710938-8.710938-8.710938-22.839844 0-31.554688l58.289062-58.285156c25.964844-25.96875 67.296875-27.210937 94.742188-3.707031 1.367187 1.179687 2.703125 2.414062 3.996093 3.707031l38.78125 38.78125c1.425782 1.429687 2.792969 2.917969 4.066407 4.4375 23.132812 27.425781 21.769531 68.46875-4.066407 94.300781zm0 0" fill="#ff84a7"/><path d="m293.855469 104.378906 58.289062-58.289062c25.96875-25.96875 67.296875-27.207032 94.742188-3.707032 1.367187 1.183594 2.703125 2.414063 3.996093 3.707032l38.78125 38.785156c1.429688 1.425781 2.792969 2.914062 4.066407 4.433594 7.988281 9.472656 13.050781 20.566406 15.199219 32.097656 3.714843-20.003906-1.34375-41.308594-15.199219-57.734375-1.273438-1.519531-2.636719-3.007813-4.066407-4.4375l-38.78125-38.78125c-1.292968-1.292969-2.628906-2.527344-3.996093-3.707031-27.445313-23.503906-68.773438-22.261719-94.742188 3.707031l-58.289062 58.285156c-7.785157 7.789063-8.59375 19.890625-2.457031 28.597657.726562-1.035157 1.53125-2.03125 2.457031-2.957032zm0 0" fill="#ef6085"/><path d="m455.273438 128.890625c-.625.84375-1.296876 1.664063-2.058594 2.425781l-19.5625 19.5625c3.238281 5.480469 6.191406 11.066406 8.875 16.765625l10.6875-10.6875c7.65625-7.65625 8.324218-19.625 2.058594-28.066406zm0 0" fill="#ef6085"/><path d="m415.140625 104.507812-9.363281 9.371094c-.023438.023438-.050782.042969-.074219.0625-1.25-1.332031-2.53125-2.65625-3.84375-3.96875-.515625-.527344-1.042969-1.050781-1.582031-1.558594-1.847656-1.808593-3.730469-3.585937-5.628906-5.3125.050781-.0625.101562-.121093.164062-.183593l9.371094-9.363281c3.03125-3.027344 7.925781-3.027344 10.957031 0 3.027344 3.027343 3.027344 7.933593 0 10.953124zm0 0" fill="#2f5066"/><path d="m438.617188 86.230469-14.328126-14.328125c-8.992187-8.992188-8.992187-23.574219 0-32.566406l28.109376-28.105469c8.992187-8.992188 23.570312-8.992188 32.5625 0l14.328124 14.324219c8.992188 8.992187 8.992188 23.574218 0 32.566406l-28.109374 28.105468c-8.992188 8.996094-23.570313 8.996094-32.5625.003907zm0 0" fill="#fecbaa"/><path d="m454.273438 70.570312-14.328126-14.324218c-8.992187-8.992188-8.992187-23.574219 0-32.566406l12.453126-12.449219c8.992187-8.992188 23.570312-8.992188 32.5625 0l14.328124 14.328125c8.992188 8.992187 8.992188 23.570312 0 32.5625l-12.453124 12.449218c-8.992188 8.992188-23.570313 8.992188-32.5625 0zm0 0" fill="#c97f4c"/><path d="m54.511719 404.953125-1.941407 1.945313c-8.421874 8.421874-8.421874 22.074218 0 30.496093l43.917969 43.917969c8.417969 8.417969 22.074219 8.417969 30.496094 0l53.386719-53.390625c8.714844-8.714844 22.839844-8.714844 31.554687 0 2.050781 2.050781 3.597657 4.40625 4.683594 6.914063l1.574219-1.574219c8.714844-8.710938 8.714844-22.839844 0-31.554688-8.710938-8.710937-22.839844-8.710937-31.554688 0l-53.386718 53.390625c-8.421876 8.421875-22.074219 8.421875-30.496094 0l-43.917969-43.917968c-1.855469-1.855469-3.277344-3.972657-4.316406-6.226563zm0 0" fill="#ef6085"/><path d="m16.117188 380.242188 16.171874-16.167969c9.300782-9.304688 24.925782-6.417969 30.488282 5.5.042968.085937.082031.171875.121094.257812.714843 1.53125 1.449218 3.058594 2.207031 4.574219l13.285156-13.28125c-3.378906-5.71875-6.460937-11.554688-9.234375-17.507812-4.003906-8.542969-7.390625-17.3125-10.152344-26.214844l-36.628906 36.625c-12.921875 12.921875-19.722656 29.648437-20.394531 46.574218 3.367187-7.375 8.066406-14.289062 14.136719-20.359374zm0 0" fill="#ef6085"/><path d="m117.390625 408.898438c-.050781.0625-.101563.125-.167969.1875l-9.363281 9.363281c-1.515625 1.519531-3.5 2.273437-5.484375 2.273437-1.972656 0-3.957031-.753906-5.476562-2.273437-3.027344-3.027344-3.027344-7.925781 0-10.953125l9.363281-9.375c.019531-.019532.050781-.039063.070312-.0625 1.25 1.335937 2.53125 2.65625 3.84375 3.96875.527344.527344 1.054688 1.054687 1.582031 1.5625 1.851563 1.808594 3.730469 3.585937 5.632813 5.308594zm0 0" fill="#2f5066"/><path d="m73.425781 425.773438 14.328125 14.328124c8.992188 8.992188 8.992188 23.570313 0 32.5625l-28.109375 28.109376c-8.992187 8.992187-23.574219 8.992187-32.5625 0l-14.328125-14.328126c-8.992187-8.992187-8.992187-23.570312 0-32.5625l28.105469-28.109374c8.992187-8.992188 23.574219-8.992188 32.566406 0zm0 0" fill="#fecbaa"/><path d="m57.957031 441.242188 14.324219 14.324218c8.992188 8.992188 8.992188 23.574219 0 32.566406l-12.636719 12.640626c-8.992187 8.992187-23.574219 8.992187-32.566406 0l-14.324219-14.328126c-8.992187-8.992187-8.992187-23.574218 0-32.5625l12.636719-12.640624c8.996094-8.992188 23.574219-8.992188 32.566406 0zm0 0" fill="#c97f4c"/><path d="m495.710938 394-100.464844 100.476562-51.628906-51.628906c5.953124-2.78125 11.78125-5.859375 17.507812-9.238281 13.082031-7.742187 25.480469-17.050781 36.941406-27.945313 1.332032-1.25 2.65625-2.539062 3.957032-3.84375.527343-.523437 1.054687-1.042968 1.570312-1.578124 1.808594-1.851563 3.585938-3.730469 5.300781-5.632813 10.179688-11.179687 18.902344-23.21875 26.1875-35.859375 3.140625-5.484375 6.023438-11.078125 8.628907-16.761719zm0 0" fill="#4f7693"/><path d="m354.027344 489.625-36.628906-36.628906c8.90625-2.761719 17.671874-6.148438 26.214843-10.152344 5.957031-2.773438 11.789063-5.855469 17.507813-9.230469l19.5625 19.558594c8.421875 8.421875 22.074218 8.421875 30.496094 0l43.917968-43.914063c8.417969-8.421874 8.417969-22.078124 0-30.5l-53.390625-53.386718c-8.710937-8.714844-8.710937-22.84375 0-31.554688 8.714844-8.714844 22.839844-8.714844 31.554688 0l58.285156 58.285156c25.96875 25.96875 27.210937 67.296876 3.707031 94.746094-1.179687 1.367188-2.410156 2.699219-3.707031 3.992188l-38.78125 38.785156c-1.425781 1.425781-2.917969 2.792969-4.4375 4.066406-27.425781 23.132813-68.464844 21.765625-94.300781-4.066406zm0 0" fill="#83d9ff"/><path d="m401.707031 320.628906c8.714844-8.714844 22.839844-8.714844 31.554688 0l58.285156 58.285156c10.21875 10.21875 16.589844 22.816407 19.148437 36.007813 4.304688-22.039063-2.078124-45.75-19.148437-62.820313l-58.285156-58.285156c-8.714844-8.714844-22.839844-8.714844-31.554688 0-7.964843 7.964844-8.625 20.441406-2.027343 29.183594.617187-.820312 1.28125-1.625 2.027343-2.371094zm0 0" fill="#5fc9ed"/><path d="m337.757812 472.273438c14.503907-6.671876 31.636719-3.578126 42.925782 7.710937 8.421875 8.421875 22.074218 8.421875 30.496094 0l43.917968-43.917969c7.832032-7.832031 8.367188-20.1875 1.628906-28.652344-.507812.636719-1.042968 1.253907-1.628906 1.84375l-43.917968 43.914063c-8.421876 8.421875-22.074219 8.421875-30.496094 0l-19.5625-19.558594c-5.71875 3.375-11.550782 6.457031-17.507813 9.230469-8.542969 4.003906-17.308593 7.390625-26.214843 10.152344l19.613281 19.613281c.167969-.074219.421875-.1875.746093-.335937zm0 0" fill="#5fc9ed"/><path d="m418.457031 415.101562c-1.519531 1.507813-3.503906 2.273438-5.488281 2.273438s-3.96875-.765625-5.476562-2.273438l-9.363282-9.363281c-.019531-.019531-.039062-.050781-.0625-.074219 1.332032-1.25 2.65625-2.539062 3.957032-3.84375.527343-.523437 1.054687-1.042968 1.574218-1.578124 1.804688-1.851563 3.585938-3.730469 5.300782-5.632813.0625.050781.121093.101563.183593.164063l9.375 9.363281c3.015625 3.027343 3.015625 7.9375 0 10.964843zm0 0" fill="#2f5066"/><path d="m425.773438 438.578125 14.324218-14.328125c8.992188-8.992188 23.574219-8.992188 32.566406 0l28.105469 28.109375c8.992188 8.992187 8.992188 23.570313 0 32.5625l-14.324219 14.328125c-8.992187 8.992188-23.574218 8.992188-32.566406 0l-28.105468-28.109375c-8.992188-8.992187-8.992188-23.570313 0-32.5625zm0 0" fill="#fecbaa"/><path d="m441.425781 454.226562 14.324219-14.324218c8.992188-8.992188 23.574219-8.992188 32.566406 0l12.453125 12.453125c8.992188 8.992187 8.992188 23.574219 0 32.566406l-14.324219 14.324219c-8.992187 8.992187-23.574218 8.992187-32.566406 0l-12.453125-12.453125c-8.992187-8.992188-8.992187-23.574219 0-32.566407zm0 0" fill="#c97f4c"/><path d="m168.386719 69.113281c-5.960938 2.78125-11.789063 5.859375-17.503907 9.238281-13.082031 7.738282-25.484374 17.050782-36.941406 27.941407-1.34375 1.25-2.65625 2.53125-3.96875 3.84375-.527344.527343-1.042968 1.042969-1.5625 1.582031-1.808594 1.859375-3.585937 3.742188-5.300781 5.640625-10.1875 11.183594-18.910156 23.222656-26.195313 35.847656-3.144531 5.488281-6.027343 11.078125-8.621093 16.761719l-52.007813-52.007812 100.472656-100.476563zm0 0" fill="#4f7693"/><path d="m157.972656 22.335938 36.628906 36.628906c-8.90625 2.761718-17.671874 6.148437-26.214843 10.152344-5.957031 2.773437-11.789063 5.855468-17.507813 9.230468l-19.5625-19.558594c-8.421875-8.421874-22.074218-8.421874-30.496094 0l-43.917968 43.914063c-8.417969 8.421875-8.417969 22.078125 0 30.5l53.390625 53.386719c8.714843 8.714844 8.714843 22.84375 0 31.554687-8.710938 8.714844-22.839844 8.714844-31.554688 0l-58.285156-58.285156c-25.96875-25.96875-27.210937-67.296875-3.707031-94.746094 1.179687-1.367187 2.410156-2.699219 3.707031-3.992187l38.78125-38.785156c1.429687-1.425782 2.917969-2.792969 4.4375-4.066407 27.425781-23.132812 68.464844-21.769531 94.300781 4.066407zm0 0" fill="#83d9ff"/><path d="m56.902344 133.203125c-.878906-.882813-1.648438-1.832031-2.347656-2.816406-5.957032 8.417969-5.191407 20.136719 2.347656 27.675781l53.390625 53.390625c1.042969 1.042969 1.953125 2.167969 2.746093 3.347656 5.835938-8.675781 4.925782-20.539062-2.746093-28.210937zm0 0" fill="#5fc9ed"/><path d="m16.746094 89.976562c1.179687-1.367187 2.410156-2.703124 3.707031-3.996093l38.78125-38.78125c1.429687-1.429688 2.917969-2.792969 4.4375-4.066407 27.425781-23.136718 68.46875-21.769531 94.300781 4.066407l18.394532 18.390625c5.992187-2.503906 12.078124-4.71875 18.234374-6.625l-36.628906-36.628906c-25.835937-25.835938-66.875-27.199219-94.300781-4.066407-1.519531 1.273438-3.007813 2.640625-4.4375 4.066407l-38.78125 38.78125c-1.296875 1.292968-2.527344 2.628906-3.707031 3.996093-14.042969 16.398438-19.246094 37.75-15.625 57.824219 2.132812-11.859375 7.328125-23.277344 15.625-32.960938zm0 0" fill="#5fc9ed"/><path d="m113.9375 106.292969c-1.34375 1.25-2.65625 2.53125-3.96875 3.84375-.527344.527343-1.042969 1.042969-1.558594 1.582031-1.808594 1.859375-3.585937 3.742188-5.300781 5.640625-.074219-.050781-.136719-.113281-.195313-.175781l-9.363281-9.363282c-3.027343-3.027343-3.027343-7.933593 0-10.960937 3.027344-3.03125 7.933594-3.03125 10.964844 0l9.363281 9.363281c.019532.019532.039063.050782.058594.070313zm0 0" fill="#2f5066"/><path d="m86.226562 73.382812-14.328124 14.328126c-8.992188 8.992187-23.570313 8.992187-32.5625 0l-28.105469-28.105469c-8.992188-8.992188-8.992188-23.574219 0-32.566407l14.324219-14.324218c8.992187-8.992188 23.574218-8.992188 32.566406 0l28.105468 28.105468c8.992188 8.992188 8.992188 23.570313 0 32.5625zm0 0" fill="#fecbaa"/><path d="m68.226562 55.382812-14.328124 14.328126c-8.992188 8.992187-23.570313 8.992187-32.5625 0l-10.105469-10.105469c-8.992188-8.992188-8.992188-23.574219 0-32.566407l14.324219-14.324218c8.992187-8.992188 23.574218-8.992188 32.566406 0l10.105468 10.105468c8.992188 8.992188 8.992188 23.570313 0 32.5625zm0 0" fill="#c97f4c"/><path d="m207.066406 345.460938-37.914062 33.617187c-2.800782 2.480469-7.089844 2.222656-9.570313-.582031l-14.984375-16.902344-10.28125-11.597656-15.789062-17.816406c-2.480469-2.796876-2.222656-7.078126.578125-9.558594l37.925781-33.613282c2.800781-2.480468 7.078125-2.222656 9.558594.578126l15.480468 17.453124 10.28125 11.605469 15.292969 17.246094c2.480469 2.800781 2.222657 7.089844-.578125 9.570313zm0 0" fill="#fff"/><path d="m395.832031 192.078125-54.394531 48.21875c-3.289062 2.914063-8.316406 2.613281-11.234375-.675781l-39.480469-44.542969c-2.917968-3.289063-2.613281-8.316406.675782-11.234375l54.394531-48.214844c3.289062-2.914062 8.316406-2.613281 11.230469.675782l39.484374 44.542968c2.917969 3.289063 2.613282 8.316406-.675781 11.230469zm0 0" fill="#fff"/><path d="m192.351562 318.644531-47.710937 42.917969c-.011719.007812-.03125.019531-.039063.03125l-10.285156-11.597656 47.703125-42.914063c.019531-.011719.03125-.03125.050781-.042969zm0 0" fill="#dae2e8"/></svg>