<svg id="Layer_5" enable-background="new 0 0 64 64" height="512" viewBox="0 0 64 64" width="512" xmlns="http://www.w3.org/2000/svg"><g><g><g><path d="m62 54v4c0 2.21-1.79 4-4 4h-52c-2.21 0-4-1.79-4-4v-4c0 2.21 1.79 4 4 4h52c2.21 0 4-1.79 4-4z" fill="#d3a06c"/></g><g><path d="m62 50v4c0 2.21-1.79 4-4 4h-52c-2.21 0-4-1.79-4-4v-4c0-2.21 1.79-4 4-4h4v2c0 2.21 1.79 4 4 4h36c2.21 0 4-1.79 4-4v-2h4c2.21 0 4 1.79 4 4z" fill="#cf9e76"/></g><g><path d="m54 46v2c0 2.21-1.79 4-4 4h-36c-2.21 0-4-1.79-4-4v-2-34c0-2.21 1.79-4 4-4h28v4h-27c-.55 0-1 .45-1 1v26c0 .55.45 1 1 1h3 21.05 9.95c.55 0 1-.45 1-1v-23l2-2h2z" fill="#969faa"/></g><g><path d="m22 45v2c0 .55-.45 1-1 1h-4c-.55 0-1-.45-1-1v-2c0-.55.45-1 1-1h4c.55 0 1 .45 1 1z" fill="#e6e9ed"/></g><g><path d="m36 45v2c0 .55-.45 1-1 1h-6c-.55 0-1-.45-1-1v-2c0-.55.45-1 1-1h6c.55 0 1 .45 1 1z" fill="#e6e9ed"/></g><g><path d="m48 45v2c0 .55-.45 1-1 1h-4c-.55 0-1-.45-1-1v-2c0-.55.45-1 1-1h4c.55 0 1 .45 1 1z" fill="#e6e9ed"/></g><g><path d="m48.41 17.59c-.26.26-.62.41-1 .41-.78 0-1.41-.63-1.41-1.41v-2.59h-2c-1.1 0-2-.9-2-2h-27c-.55 0-1 .45-1 1v26c0 .55.45 1 1 1h34c.55 0 1-.45 1-1v-23z" fill="#69d6f4"/></g><g><path d="m62 4v8c0 1.1-.9 2-2 2h-6-2l-2 2-1.59 1.59c-.26.26-.62.41-1 .41-.78 0-1.41-.63-1.41-1.41v-2.59h-2c-1.1 0-2-.9-2-2v-4-4c0-1.1.9-2 2-2h16c1.1 0 2 .9 2 2z" fill="#ffeaa7"/></g><g><path d="m31 37 1.67-6.67.74.15c1.67.34 3.17 1.25 4.24 2.58l2.35 2.94v-8h4v7.05c0 2.73-2.22 4.95-4.95 4.95h-21.05v-2.29c0-1.12.26-2.23.77-3.24.79-1.59 2.14-2.83 3.79-3.49l.85-.34 1.59 6.36 3-3z" fill="#ff826e"/></g><g><path d="m32.67 30.33-1.67 6.67-3-3 3.38-4.06c.26.14.54.24.84.3z" fill="#fc6e51"/></g><g><path d="m24.7 30.04 3.3 3.96-3 3-1.59-6.36.72-.29c.2-.08.39-.18.57-.31z" fill="#fc6e51"/></g><g><path d="m34.16 23.85c-.54.81-1.3 1.45-2.22 1.85.04-.23.06-.46.06-.7v-2c-1.28 0-2.51-.51-3.41-1.41l-.59-.59-.59.59c-.9.9-2.13 1.41-3.41 1.41v2c0 .24.02.47.06.7-1.83-.79-3.06-2.6-3.06-4.65 0-1.39.56-2.66 1.48-3.57.91-.92 2.18-1.48 3.57-1.48h3.9c2.79 0 5.05 2.26 5.05 5.05 0 1.03-.31 1.99-.84 2.8z" fill="#b27946"/></g><g><path d="m40 26c0-.55.22-1.05.59-1.41.36-.37.86-.59 1.41-.59v-2c0-.55.22-1.05.59-1.41.36-.37.86-.59 1.41-.59 1.1 0 2 .9 2 2v2.34c0 1.06-.42 2.08-1.17 2.83l-.83.83h-4z" fill="#f0d0b4"/></g><g><path d="m30.31 28.97c.27.41.64.74 1.07.97l-3.38 4.06-3.3-3.96c.32-.21.6-.49.82-.82l.5-.75c.58.34 1.26.53 1.98.53s1.4-.19 1.98-.53z" fill="#f0d0b4"/></g><g><path d="m29.98 28.47c-.58.34-1.26.53-1.98.53s-1.4-.19-1.98-.53c-1.01-.57-1.75-1.58-1.96-2.77-.04-.23-.06-.46-.06-.7v-2c1.28 0 2.51-.51 3.41-1.41l.59-.59.59.59c.9.9 2.13 1.41 3.41 1.41v2c0 .24-.02.47-.06.7-.21 1.19-.95 2.2-1.96 2.77z" fill="#f0d0b4"/></g></g><g><path d="m45 5h14v2h-14z"/><path d="m57 9h2v2h-2z"/><path d="m45 9h2v2h-2z"/><path d="m53 9h2v2h-2z"/><path d="m49 9h2v2h-2z"/><path d="m60 15c1.654 0 3-1.346 3-3v-8c0-1.654-1.346-3-3-3h-16c-1.654 0-3 1.346-3 3v3h-27c-2.757 0-5 2.243-5 5v33h-3c-2.757 0-5 2.243-5 5v8c0 2.757 2.243 5 5 5h52c2.757 0 5-2.243 5-5v-8c0-2.757-2.243-5-5-5h-3v-30zm-17-11c0-.551.448-1 1-1h16c.552 0 1 .449 1 1v8c0 .551-.448 1-1 1h-8.414l-3.88 3.879c-.235.237-.706.045-.706-.293v-3.586h-3c-.552 0-1-.449-1-1zm-19 18h-1v1.719c-.631-.724-1-1.662-1-2.664 0-2.236 1.818-4.055 4.054-4.055h3.893c2.235 0 4.053 1.819 4.053 4.054 0 1.002-.369 1.941-1 2.664v-1.718h-1c-1.008 0-1.994-.409-2.707-1.121l-1.293-1.293-1.293 1.293c-.713.712-1.699 1.121-2.707 1.121zm7.327 9.569-.869 3.475-1.105-1.105zm-6.327-6.569v-1.088c1.117-.197 2.17-.72 3-1.501.83.782 1.883 1.304 3 1.501v1.088c0 1.654-1.346 3-3 3s-3-1.346-3-3zm3 5c.573 0 1.116-.117 1.629-.295.102.136.204.273.321.393l-1.95 2.34-1.924-2.309c.095-.113.19-.226.273-.35l.045-.068c.507.174 1.041.289 1.606.289zm-1.353 3.938-1.105 1.105-.868-3.474zm-3.925-1.927 1.736 6.945 3.542-3.542 3.542 3.542 1.859-7.439c1.364.319 2.592 1.075 3.469 2.171l2.13 2.663v.649h2v-8h2v6.05c0 2.178-1.772 3.95-3.95 3.95h-20.05v-1.287c0-.965.229-1.933.661-2.798.65-1.301 1.737-2.315 3.061-2.904zm20.864-5.011h-2.586v-1c0-.551.448-1 1-1h1v-3c0-.551.448-1 1-1s1 .449 1 1v2.345c0 .8-.312 1.553-.878 2.119zm1.414 8.05v-6.636l.536-.536c.944-.944 1.464-2.198 1.464-3.533v-2.345c0-1.654-1.346-3-3-3s-3 1.346-3 3v1.171c-1.164.413-2 1.525-2 2.829v7.149l-.567-.709c-1.212-1.515-2.927-2.558-4.828-2.938l-1.19-.238c-.403-.081-.771-.291-1.054-.586.669-.611 1.16-1.399 1.42-2.291 1.966-1.043 3.22-3.076 3.22-5.331-.001-3.34-2.717-6.056-6.055-6.056h-3.893c-3.337 0-6.053 2.716-6.053 6.054 0 2.255 1.254 4.288 3.22 5.331.262.902.763 1.695 1.442 2.31-.223.324-.531.576-.898.722l-1.573.629c-1.881.752-3.414 2.164-4.318 3.974-.571 1.142-.873 2.418-.873 3.693v1.287h-2v-26h26.184c.414 1.161 1.514 2 2.816 2h1v1.586c0 1.331 1.083 2.414 2.414 2.414.584 0 1.149-.225 1.586-.608v20.608h-5.512c.937-1.052 1.512-2.433 1.512-3.95zm13 25.95h-52c-1.654 0-3-1.346-3-3v-.026c.838.635 1.87 1.026 3 1.026h52c1.13 0 2.162-.391 3-1.026v.026c0 1.654-1.346 3-3 3zm0-14c1.654 0 3 1.346 3 3v4c0 1.654-1.346 3-3 3h-52c-1.654 0-3-1.346-3-3v-4c0-1.654 1.346-3 3-3h3v1c0 2.757 2.243 5 5 5h36c2.757 0 5-2.243 5-5v-1zm-5 1c0 1.654-1.346 3-3 3h-36c-1.654 0-3-1.346-3-3v-36c0-1.654 1.346-3 3-3h27v2h-26c-1.103 0-2 .897-2 2v26c0 1.103.897 2 2 2h34c1.103 0 2-.897 2-2v-22.586l1.414-1.414h.586z"/><path d="m21 43h-4c-1.103 0-2 .897-2 2v2c0 1.103.897 2 2 2h4c1.103 0 2-.897 2-2v-2c0-1.103-.897-2-2-2zm-4 4v-2h4l.001 2z"/><path d="m47 43h-4c-1.103 0-2 .897-2 2v2c0 1.103.897 2 2 2h4c1.103 0 2-.897 2-2v-2c0-1.103-.897-2-2-2zm-4 4v-2h4l.001 2z"/><path d="m35 43h-6c-1.103 0-2 .897-2 2v2c0 1.103.897 2 2 2h6c1.103 0 2-.897 2-2v-2c0-1.103-.897-2-2-2zm-6 4v-2h6l.001 2z"/></g></g></svg>