<?xml version="1.0" encoding="utf-8"?>
<!-- Generator: Adobe Illustrator 23.0.6, SVG Export Plug-In . SVG Version: 6.00 Build 0)  -->
<svg version="1.1" id="Capa_1" xmlns="http://www.w3.org/2000/svg" xmlns:xlink="http://www.w3.org/1999/xlink" x="0px" y="0px"
	 viewBox="0 0 841.89 595.28" style="enable-background:new 0 0 841.89 595.28;" xml:space="preserve">
<style type="text/css">
	.st0{fill:#DB0812;}
	.st1{clip-path:url(#SVGID_2_);fill:none;stroke:#12100B;stroke-width:2;stroke-linecap:round;stroke-linejoin:round;}
</style>
<path class="st0" d="M413.65,317.05l10.58,75.68h-16.76l-7.46-52.86l-0.18-0.12l-12.68,24.08h13.56l2.11,14.03h-23l-7.87,14.86
	h-18.72l7.34-14.86h-10.33l7.22-14.03h10.56l24.77-46.79H413.65z M533.52,334.6l-10.15,58.14h-16.78l-12.68-29.22
	c-1.94,9.69-3.46,19.53-5.17,29.22h-16.9c0.65-4.46,1.54-9.02,1.94-13.42c-5.46,9.62-15.26,15.26-26.18,15.08
	c-7.96-0.09-17.69-5.07-22.12-11.56l-4.34-30.39c3.87-10.2,14.49-18.13,25.35-19.02c11.03-0.64,20.49,4.05,26.88,13.21
	c2.28,3.34,3.51,7.1,4.33,11.03l4.15-23.06h16.45l12.97,29.39c1.81-9.74,3.57-19.54,5.16-29.39H533.52z M458,353.26
	c-3.29-4.1-8.58-5.4-13.38-3.81c-4.05,1.12-7.22,5.52-8.56,9.15c-2.42,6.35,0.34,15.04,4.73,17.73c2.97,1.82,6.4,2.82,9.95,1.75
	c3.57-1.17,7.1-4.04,8.68-7.62C461.69,365.35,462.11,357.66,458,353.26"/>
<g>
	<path class="st0" d="M257.51,233.26h29.84v5.81h-22.61v17.84h20.88v5.73h-20.88v24.29h-7.23V233.26z"/>
	<path class="st0" d="M327.81,276.43c0,3.98,0.08,7.49,0.33,10.51h-6.41l-0.41-6.29h-0.16c-1.81,3.11-6.08,7.17-13.15,7.17
		c-6.25,0-13.73-3.42-13.73-16.89v-22.54h7.23v21.27c0,7.33,2.38,12.35,8.88,12.35c4.85,0,8.22-3.27,9.54-6.45
		c0.41-0.96,0.66-2.23,0.66-3.58v-23.58h7.23V276.43z"/>
	<path class="st0" d="M339.82,258.83c0-4.06-0.08-7.25-0.33-10.43h6.41l0.41,6.29h0.17c1.97-3.58,6.58-7.17,13.15-7.17
		c5.51,0,14.06,3.19,14.06,16.41v23.02h-7.24v-22.22c0-6.21-2.38-11.47-9.21-11.47c-4.69,0-8.39,3.27-9.7,7.17
		c-0.33,0.88-0.49,2.15-0.49,3.27v23.26h-7.23V258.83z"/>
	<path class="st0" d="M419.81,230.39v46.6c0,3.43,0.08,7.33,0.33,9.96h-6.5l-0.33-6.69h-0.16c-2.22,4.3-6.99,7.57-13.48,7.57
		c-9.62,0-17.1-7.89-17.1-19.59c-0.08-12.9,8.22-20.71,17.84-20.71c6.17,0,10.28,2.79,12,5.81h0.17v-22.94H419.81z M412.58,264.08
		c0-0.96-0.08-2.07-0.33-3.03c-1.07-4.38-5.02-8.04-10.44-8.04c-7.48,0-11.92,6.37-11.92,14.81c0,7.89,4.03,14.34,11.76,14.34
		c4.85,0,9.29-3.19,10.61-8.36c0.25-0.96,0.33-1.91,0.33-3.03V264.08z"/>
	<path class="st0" d="M459.85,277.7c0,3.35,0.16,6.61,0.57,9.24h-6.49l-0.66-4.86h-0.25c-2.14,3.03-6.5,5.73-12.17,5.73
		c-8.06,0-12.17-5.5-12.17-11.07c0-9.32,8.55-14.42,23.92-14.34v-0.8c0-3.19-0.9-9-9.04-8.92c-3.78,0-7.65,1.04-10.44,2.87
		l-1.64-4.7c3.29-1.99,8.14-3.35,13.15-3.35c12.25,0,15.21,8.04,15.21,15.77V277.7z M452.78,267.27
		c-7.89-0.16-16.86,1.19-16.86,8.68c0,4.62,3.13,6.69,6.74,6.69c5.26,0,8.63-3.19,9.78-6.45c0.25-0.72,0.33-1.51,0.33-2.23V267.27z"
		/>
	<path class="st0" d="M499.81,285.59c-1.89,0.88-6.08,2.23-11.43,2.23c-12,0-19.81-7.89-19.81-19.75c0-11.87,8.39-20.55,21.38-20.55
		c4.28,0,8.06,1.04,10.03,2.07l-1.64,5.34c-1.73-0.88-4.44-1.83-8.38-1.83c-9.13,0-14.06,6.61-14.06,14.66
		c0,8.92,5.92,14.42,13.81,14.42c4.11,0,6.82-0.96,8.88-1.83L499.81,285.59z"/>
	<path class="st0" d="M511.73,241.3c-2.71,0-4.52-2.07-4.52-4.54c0-2.47,1.89-4.46,4.69-4.46c2.8,0,4.6,1.99,4.6,4.46
		c0,2.47-1.81,4.54-4.69,4.54H511.73z M508.28,286.94v-38.55h7.23v38.55H508.28z"/>
	<path class="st0" d="M543.71,287.82c-10.69,0-19.07-7.65-19.07-19.83c0-12.9,8.8-20.47,19.73-20.47c11.43,0,19.16,8.04,19.16,19.75
		c0,14.34-10.28,20.55-19.73,20.55H543.71z M543.96,282.56c6.91,0,12.09-6.29,12.09-15.05c0-6.53-3.37-14.74-11.92-14.74
		c-8.47,0-12.17,7.65-12.17,14.97c0,8.44,4.93,14.81,11.92,14.81H543.96z M554.97,232.3l-10.03,11.39h-5.1l7.23-11.39H554.97z"/>
	<path class="st0" d="M572.65,258.83c0-4.06-0.08-7.25-0.33-10.43h6.41l0.41,6.29h0.16c1.97-3.58,6.58-7.17,13.15-7.17
		c5.51,0,14.06,3.19,14.06,16.41v23.02h-7.23v-22.22c0-6.21-2.38-11.47-9.21-11.47c-4.69,0-8.38,3.27-9.7,7.17
		c-0.33,0.88-0.49,2.15-0.49,3.27v23.26h-7.23V258.83z"/>
</g>
<polygon class="st0" points="250.82,185.95 250.88,210.53 441.26,101.61 632.06,210.53 631.98,185.85 441.27,76.97 "/>
<g>
	<defs>
		<rect id="SVGID_1_" x="207.57" y="51.79" width="418.83" height="519.58"/>
	</defs>
	<clipPath id="SVGID_2_">
		<use xlink:href="#SVGID_1_"  style="overflow:visible;"/>
	</clipPath>
	<polyline class="st1" points="626,461.54 435.22,570.4 208.4,441.17 208.4,181.1 435.42,52.51 	"/>
</g>
<g>
	<path class="st0" d="M343.14,444.74h-21.46v19.36h24.01v5.81h-31.24v-53.68h30.01v5.81h-22.77V439h21.46V444.74z"/>
	<path class="st0" d="M353.9,462.82c2.22,1.27,6,2.71,9.62,2.71c5.18,0,7.65-2.47,7.65-5.73c0-3.35-2.06-5.18-7.32-7.09
		c-7.23-2.55-10.61-6.29-10.61-10.91c0-6.21,5.26-11.31,13.73-11.31c4.03,0,7.56,1.04,9.7,2.39l-1.73,5.02
		c-1.56-0.88-4.44-2.23-8.14-2.23c-4.28,0-6.58,2.39-6.58,5.26c0,3.27,2.3,4.7,7.48,6.61c6.82,2.47,10.44,5.81,10.44,11.63
		c0,6.85-5.51,11.63-14.8,11.63c-4.36,0-8.39-1.12-11.18-2.71L353.9,462.82z"/>
	<path class="st0" d="M387.45,443.94c0-4.94-0.08-8.92-0.33-12.58h6.5l0.41,6.61h0.16c2.88-4.78,7.65-7.49,14.06-7.49
		c9.7,0,16.94,7.88,16.94,19.59c0,13.86-8.8,20.71-18.09,20.71c-5.34,0-9.87-2.23-12.25-6.05h-0.17v20.95h-7.23V443.94z
		 M394.69,454.21c0,0.96,0.08,1.99,0.33,2.87c1.23,4.86,5.67,8.2,10.77,8.2c7.65,0,12.08-6.05,12.08-14.89
		c0-7.73-4.11-14.34-11.76-14.34c-4.93,0-9.62,3.35-11.02,8.6c-0.16,0.96-0.41,1.99-0.41,2.87V454.21z"/>
	<path class="st0" d="M462.27,460.67c0,3.34,0.16,6.61,0.58,9.24h-6.5l-0.66-4.86h-0.25c-2.14,3.03-6.49,5.73-12.17,5.73
		c-8.06,0-12.17-5.5-12.17-11.07c0-9.32,8.55-14.42,23.92-14.34v-0.8c0-3.19-0.9-9-9.04-8.92c-3.78,0-7.65,1.04-10.44,2.87
		l-1.64-4.7c3.29-1.99,8.14-3.34,13.15-3.34c12.25,0,15.21,8.04,15.21,15.77V460.67z M455.2,450.23c-7.89-0.16-16.85,1.2-16.85,8.68
		c0,4.62,3.12,6.69,6.74,6.69c5.26,0,8.63-3.19,9.79-6.45c0.25-0.72,0.33-1.51,0.33-2.23V450.23z"/>
	<path class="st0" d="M473.86,441.79c0-4.06-0.08-7.25-0.33-10.43h6.41l0.41,6.29h0.16c1.97-3.58,6.58-7.17,13.15-7.17
		c5.51,0,14.06,3.19,14.06,16.41v23.02h-7.24v-22.22c0-6.21-2.38-11.47-9.21-11.47c-4.69,0-8.39,3.27-9.7,7.17
		c-0.33,0.88-0.49,2.15-0.49,3.27v23.26h-7.23V441.79z M480.77,425.22c0-2.31,0.41-4.3,1.31-5.66c0.99-1.43,2.3-2.31,4.03-2.31
		c1.97,0,3.29,0.8,5.26,1.83c1.23,0.72,2.38,1.35,3.7,1.35c1.23,0,1.97-0.72,2.14-3.35h3.62c0.08,4.86-1.64,7.65-5.51,7.65
		c-1.81,0-3.37-0.8-5.02-1.75c-1.64-0.88-2.63-1.35-3.7-1.35c-1.23,0-1.97,1.35-2.14,3.58H480.77z"/>
	<path class="st0" d="M547.53,460.67c0,3.34,0.16,6.61,0.57,9.24h-6.49l-0.66-4.86h-0.25c-2.14,3.03-6.5,5.73-12.17,5.73
		c-8.06,0-12.17-5.5-12.17-11.07c0-9.32,8.55-14.42,23.92-14.34v-0.8c0-3.19-0.9-9-9.04-8.92c-3.78,0-7.65,1.04-10.44,2.87
		l-1.64-4.7c3.29-1.99,8.14-3.34,13.15-3.34c12.25,0,15.21,8.04,15.21,15.77V460.67z M540.46,450.23
		c-7.89-0.16-16.86,1.2-16.86,8.68c0,4.62,3.13,6.69,6.74,6.69c5.26,0,8.63-3.19,9.78-6.45c0.25-0.72,0.33-1.51,0.33-2.23V450.23z"
		/>
</g>
</svg>
