<?xml version="1.0" encoding="UTF-8"?>
<svg id="Capa_1" data-name="Capa 1" xmlns="http://www.w3.org/2000/svg" viewBox="0 0 62.52 63.83">
  <defs>
    <style>
      .cls-1 {
        stroke-width: 0px;
      }
    </style>
  </defs>
  <path class="cls-1" d="M60.97,23.04c-1.73-5.46-4.96-13.1-15.68-19.18S21.2-.17,13.08,6.29c.86-.27,7.67-5.54,18.44-.69,2.77,1.25,9.1,3.01,10.75,3.1,1.41.08,2.86,3.38-1.72,5.08-2.53.94-4.93.37-7.48-.15-3.07-.63-6.07-1.69-9.15-2.17-3.19-.5-6.43-.88-9.66-.66-1.88.13-5.63-.05-7.07,1.3C3.03,15.98.11,24.95.29,31.93c.51,20.52,16.73,28.51,20.06,29.74,8.36,3.11,20.79,2.89,29.81-4.96-5.83,3.68-14.22,3.03-16.88,1.56-2.66-1.47-9.1-3.01-10.75-3.1-1.41-.08-2.86-3.38,1.72-5.08,1.53-.57,3.16-.7,4.76-.48,3.24.46,3.84.94,10,2.5,2.18.55,4.48.71,6.7.85,1.84.11,3.13.32,5.53,0,1.56-.21,3.35-.72,3.96-1.44,5.19-6.15,9.17-17.75,5.77-28.48ZM30.63,46.9c-4.03-2.97-8.13-7.93-8.94-15.16-.17-1.52-.85-2.92-1.93-3.87-.06-.05-.11-.1-.17-.15-.73-.63-1.79-.11-1.88.92-.24,3.05.05,9.3,4.27,18.69-4.84-6.69-7.17-13.01-8.19-18.66-.14-.8-.59-1.5-1.25-1.85-.54-.29-.87-.13-1.25.22-1.2,1.09-3.94,9.6,7.64,25.12-7.92-2.9-12.45-10.88-13.34-17.21-1.26-9.04,2.75-13.18,4.67-14.58,5.12-3.73,11.77-3.64,16.31-2.03,3.07,1.27,7.64,3.03,9.39,11.46.21,1.02.38,2.37,1.02,3.13.69.82,1.7.92,2.04.73,1.3-.72,2.3-8.04-4.86-16.7,4.03,2.97,8.14,7.93,8.94,15.16.17,1.52.85,2.92,1.93,3.87.06.05.11.1.17.15.73.63,1.79.11,1.88-.92.24-3.05-.05-9.3-4.27-18.69,4.84,6.69,7.17,13.01,8.19,18.66.14.8.59,1.5,1.25,1.85.54.29.87.13,1.25-.22,1.2-1.09,3.94-9.6-7.64-25.12,9.02,6.13,10.72,11.02,11.72,16.23.16.85.28,1.8.35,2.79.79,10.57-9.67,18.4-19.61,14.73-.52-.19-.95-.35-1.27-.43-2.96-1.3-6.68-3.56-8.22-10.98-.21-1.01-.4-2.36-1.04-3.12-.69-.82-1.68-.92-2.03-.73-1.3.72-2.3,8.04,4.86,16.7Z"/>
</svg>