<?xml version="1.0" encoding="UTF-8"?>
<svg id="Capa_1" data-name="Capa 1" xmlns="http://www.w3.org/2000/svg" viewBox="0 0 62.52 63.83">
  <defs>
    <style>
      .cls-1 {
        fill: #fff;
        stroke-width: 0px;
      }
    </style>
  </defs>
  <path class="cls-1" d="M60.79,23.09c-1.72-5.43-4.93-13.02-15.58-19.06C34.81-1.86,21.26.03,13.19,6.45c.86-.27,7.62-5.51,18.32-.69,2.75,1.24,9.04,2.99,10.68,3.08,1.4.08,2.85,3.36-1.71,5.04-2.51.93-4.9.37-7.43-.15-3.05-.63-6.04-1.68-9.09-2.16s-6.39-.88-9.6-.66c-1.86.13-5.59-.05-7.03,1.29C3.21,16.08.31,25,.48,31.93c.5,20.39,16.63,28.33,19.93,29.56,8.31,3.09,20.66,2.87,29.62-4.93-5.79,3.66-14.13,3.01-16.77,1.55-2.64-1.47-9.04-2.99-10.68-3.08-1.4-.08-2.85-3.36,1.71-5.04,1.52-.56,3.14-.7,4.73-.48,3.22.45,3.81.93,9.94,2.48,2.16.55,4.45.71,6.66.84,1.83.11,3.11.32,5.49,0,1.55-.21,3.33-.71,3.93-1.43,5.16-6.11,9.12-17.64,5.74-28.31ZM30.63,46.81c-4.01-2.95-8.08-7.88-8.89-15.06-.17-1.51-.85-2.9-1.92-3.85-.06-.05-.11-.1-.17-.15-.72-.63-1.78-.1-1.86.91-.24,3.03.05,9.24,4.24,18.57-4.81-6.65-7.12-12.93-8.13-18.55-.14-.79-.59-1.49-1.24-1.84-.53-.29-.87-.13-1.25.22-1.19,1.09-3.91,9.54,7.6,24.97-7.88-2.88-12.38-10.81-13.25-17.1-1.25-8.99,2.73-13.1,4.64-14.49,5.09-3.7,11.69-3.62,16.2-2.02,3.05,1.26,7.59,3.01,9.34,11.39.21,1.01.38,2.35,1.01,3.11.69.81,1.69.91,2.03.72,1.29-.71,2.28-7.99-4.83-16.6,4.01,2.95,8.08,7.88,8.89,15.06.17,1.51.85,2.9,1.92,3.85.06.05.11.1.17.15.72.63,1.78.1,1.86-.91.24-3.03-.05-9.24-4.24-18.57,4.81,6.65,7.12,12.93,8.13,18.55.14.79.59,1.49,1.24,1.84.53.29.87.13,1.25-.22,1.19-1.09,3.91-9.54-7.6-24.97,8.96,6.09,10.66,10.95,11.64,16.13.16.84.28,1.78.35,2.77.78,10.51-9.61,18.29-19.49,14.64-.52-.19-.95-.34-1.26-.43-2.94-1.29-6.64-3.54-8.17-10.91-.21-1.01-.39-2.34-1.03-3.1-.69-.81-1.67-.91-2.01-.72-1.29.71-2.28,7.99,4.83,16.6Z"/>
</svg>