<?xml version="1.0" encoding="UTF-8"?>
<svg id="Capa_1" data-name="Capa 1" xmlns="http://www.w3.org/2000/svg" viewBox="0 0 62.52 63.83">
  <defs>
    <style>
      .cls-1 {
        fill: #006;
        stroke-width: 0px;
      }
    </style>
  </defs>
  <path class="cls-1" d="M60.99,23.03c-1.73-5.47-4.96-13.11-15.69-19.19C34.84-2.09,21.19-.19,13.07,6.27c.86-.27,7.68-5.55,18.45-.69,2.77,1.25,9.1,3.01,10.75,3.1,1.41.08,2.87,3.38-1.72,5.08-2.53.94-4.93.37-7.48-.15-3.07-.63-6.08-1.69-9.16-2.17-3.2-.5-6.43-.88-9.66-.66-1.88.13-5.63-.05-7.07,1.3C3.02,15.97.1,24.95.27,31.93c.51,20.53,16.74,28.52,20.07,29.76,8.36,3.12,20.8,2.89,29.83-4.97-5.83,3.69-14.23,3.03-16.89,1.56-2.66-1.48-9.1-3.01-10.75-3.1-1.41-.08-2.87-3.38,1.72-5.08,1.53-.57,3.16-.7,4.76-.48,3.24.46,3.84.94,10.01,2.5,2.18.55,4.49.71,6.71.85,1.84.11,3.13.32,5.53,0,1.56-.21,3.35-.72,3.96-1.44,5.19-6.16,9.18-17.76,5.78-28.5ZM30.63,46.91c-4.03-2.97-8.14-7.94-8.95-15.17-.17-1.53-.85-2.92-1.94-3.87-.06-.05-.11-.1-.17-.15-.73-.63-1.79-.11-1.88.92-.24,3.05.05,9.31,4.27,18.7-4.84-6.7-7.17-13.02-8.19-18.67-.14-.8-.59-1.5-1.25-1.85-.54-.29-.87-.13-1.26.22-1.2,1.09-3.94,9.6,7.65,25.14-7.93-2.9-12.46-10.89-13.34-17.22-1.26-9.05,2.75-13.19,4.67-14.59,5.13-3.73,11.77-3.65,16.32-2.03,3.07,1.27,7.65,3.03,9.4,11.47.21,1.02.38,2.37,1.02,3.13.69.82,1.7.92,2.04.73,1.3-.72,2.3-8.04-4.86-16.71,4.03,2.97,8.14,7.94,8.95,15.17.17,1.53.85,2.92,1.94,3.87.06.05.11.1.17.15.73.63,1.79.11,1.88-.92.24-3.05-.05-9.31-4.27-18.7,4.84,6.7,7.17,13.02,8.19,18.67.14.8.59,1.5,1.25,1.85.54.29.87.13,1.26-.22,1.2-1.09,3.94-9.6-7.65-25.14,9.03,6.13,10.73,11.03,11.73,16.24.16.85.28,1.8.35,2.79.79,10.58-9.67,18.41-19.63,14.74-.52-.19-.95-.35-1.27-.43-2.96-1.3-6.69-3.56-8.23-10.99-.21-1.01-.4-2.36-1.04-3.12-.69-.82-1.68-.92-2.03-.73-1.3.72-2.3,8.04,4.86,16.71Z"/>
</svg>