<?xml version="1.0" encoding="UTF-8"?>
<svg id="Capa_1" data-name="Capa 1" xmlns="http://www.w3.org/2000/svg" viewBox="0 0 509.01 139.25">
  <defs>
    <style>
      .cls-1 {
        fill: #fff;
        stroke-width: 0px;
      }
    </style>
  </defs>
  <path class="cls-1" d="M72.25,44.82l-27.38,52.23-26.04-52.23h10.68l15.51,31.42,16.54-31.42h10.68Z"/>
  <path class="cls-1" d="M189.4,97.05h-40.44v-52.23h10.68v41.55h29.75v10.68Z"/>
  <path class="cls-1" d="M208.43,93.88c-3.72-2.37-6.66-5.6-8.82-9.69-2.16-4.09-3.24-8.59-3.24-13.49v-26.27h10.68v26.27c0,2.9.62,5.58,1.86,8.03,1.24,2.45,2.9,4.41,4.99,5.86,2.08,1.45,4.37,2.18,6.85,2.18s4.76-.72,6.84-2.18c2.08-1.45,3.75-3.4,4.99-5.86,1.24-2.45,1.86-5.13,1.86-8.03v-26.27h10.68v26.27c0,4.96-1.07,9.48-3.2,13.57-2.14,4.09-5.07,7.31-8.78,9.65-3.72,2.35-7.85,3.52-12.38,3.52s-8.59-1.19-12.31-3.56Z"/>
  <path class="cls-1" d="M269.92,97.05h-10.68v-52.23l30.15,28.01v-28.01h10.68v52.23l-30.15-27.86v27.86Z"/>
  <path class="cls-1" d="M324.87,97.05h-10.68v-52.23h39.41v10.68h-28.73v11.55h24.29v10.68h-24.29v19.31Z"/>
  <path class="cls-1" d="M364.28,97.05h-10.68l21.68-52.23,25.17,52.23h-10.68l-13.93-28.88-11.55,28.88Z"/>
  <path class="cls-1" d="M422.32,97.05h-10.68v-52.23h10.68v52.23Z"/>
  <path class="cls-1" d="M436.44,97.05v-52.23h22.63c6.86,0,12.29,1.77,16.3,5.3,4.01,3.54,6.01,8.52,6.01,14.96,0,3.85-.63,7.1-1.9,9.73-1.27,2.64-2.9,4.62-4.91,5.93-2,1.32-4.09,2.01-6.25,2.06l13.29,14.24h-13.85l-17.88-20.97c.84.05,2.03.08,3.56.08,4.54,0,8.04-.4,10.53-1.19,2.48-.79,4.22-1.98,5.22-3.56,1-1.58,1.5-3.69,1.5-6.33,0-3.38-.96-5.82-2.89-7.32-1.93-1.5-4.84-2.26-8.74-2.26h-11.95v41.55h-10.68Z"/>
  <path class="cls-1" d="M137.45,61.98c-1.75-5.51-5-13.22-15.82-19.35s-24.32-4.07-32.51,2.45c.87-.28,7.74-5.59,18.61-.7,2.8,1.26,9.18,3.03,10.84,3.13,1.42.08,2.89,3.41-1.74,5.12-2.55.94-4.97.37-7.54-.15-3.1-.64-6.13-1.7-9.23-2.19s-6.49-.89-9.75-.67c-1.89.13-5.68-.05-7.13,1.31-4.19,3.93-7.14,12.99-6.96,20.03.51,20.7,16.88,28.76,20.24,30.01,8.43,3.14,20.98,2.92,30.08-5.01-5.88,3.72-14.35,3.06-17.03,1.57-2.68-1.49-9.18-3.03-10.84-3.13-1.42-.08-2.89-3.41,1.74-5.12,1.54-.57,3.19-.71,4.8-.48,3.27.46,3.87.94,10.09,2.52,2.2.56,4.52.72,6.76.86,1.86.12,3.16.32,5.58,0,1.57-.21,3.38-.73,3.99-1.45,5.24-6.21,9.26-17.91,5.82-28.74ZM106.83,86.06c-4.07-3-8.21-8-9.02-15.3-.17-1.54-.86-2.95-1.95-3.91-.06-.05-.11-.1-.17-.15-.74-.63-1.81-.11-1.89.93-.25,3.07.05,9.39,4.3,18.86-4.88-6.75-7.23-13.13-8.26-18.83-.14-.8-.6-1.51-1.26-1.87-.54-.29-.88-.13-1.27.22-1.21,1.1-3.97,9.68,7.71,25.35-8-2.93-12.57-10.98-13.46-17.36-1.27-9.12,2.77-13.3,4.71-14.71,5.17-3.76,11.87-3.68,16.45-2.05,3.1,1.28,7.71,3.06,9.48,11.57.21,1.03.38,2.39,1.03,3.16.7.83,1.71.92,2.06.73,1.31-.73,2.32-8.11-4.9-16.85,4.07,3,8.21,8,9.02,15.3.17,1.54.86,2.95,1.95,3.91.06.05.11.1.17.15.74.63,1.81.11,1.89-.93.25-3.07-.05-9.39-4.3-18.86,4.88,6.75,7.23,13.13,8.26,18.83.14.8.6,1.51,1.26,1.87.54.29.88.13,1.27-.22,1.21-1.1,3.97-9.69-7.71-25.35,9.1,6.18,10.82,11.12,11.82,16.38.16.86.28,1.81.36,2.82.79,10.67-9.75,18.57-19.79,14.87-.53-.19-.96-.35-1.28-.43-2.99-1.31-6.74-3.59-8.3-11.08-.21-1.02-.4-2.38-1.05-3.14-.7-.83-1.7-.93-2.04-.73-1.31.73-2.32,8.11,4.9,16.85Z"/>
</svg>